<svg width="10" height="11" viewBox="0 0 10 11" fill="none" xmlns="http://www.w3.org/2000/svg">
<path d="M6.49973 2.77779L2.59467 6.74769C2.45402 6.88834 2.375 7.0791 2.375 7.27802C2.375 7.47693 2.45402 7.66769 2.59467 7.80835C2.73532 7.949 2.92609 8.02802 3.125 8.02802C3.32391 8.02802 3.51468 7.949 3.65533 7.80835L8.31039 3.08845C8.44967 2.94916 8.56016 2.7838 8.63554 2.60181C8.71093 2.41982 8.74973 2.22477 8.74973 2.02779C8.74973 1.8308 8.71093 1.63575 8.63554 1.45376C8.56016 1.27177 8.44967 1.10641 8.31039 0.967126C8.1711 0.827838 8.00574 0.717349 7.82375 0.641967C7.64176 0.566585 7.44671 0.527786 7.24973 0.527786C7.05274 0.527786 6.85769 0.566585 6.6757 0.641967C6.49371 0.717349 6.32835 0.827838 6.18907 0.967126L1.53401 5.68702C1.11205 6.10898 0.875 6.68128 0.875 7.27802C0.875 7.87475 1.11205 8.44705 1.53401 8.86901C1.95597 9.29096 2.52826 9.52802 3.125 9.52802C3.72174 9.52802 4.29403 9.29096 4.71599 8.86901L8.56223 5.02779" stroke="#6E778D" stroke-linecap="round" stroke-linejoin="round"/>
</svg>
