<svg width="44" height="44" viewBox="0 0 44 44" fill="none" xmlns="http://www.w3.org/2000/svg">
<rect width="44" height="44" fill="url(#paint0_linear)"/>
<path d="M31.7087 13C31.4411 12.9997 31.1756 13.0412 30.9241 13.1226V13.1214L12.7098 18.7561C11.9302 18.9502 11.2434 19.3658 10.7541 19.9396C10.2648 20.5133 10 21.2137 10 21.9339C10 22.654 10.2648 23.3544 10.7541 23.9281C11.2434 24.5018 11.9302 24.9175 12.7098 25.1115L15.0297 25.8292L14.5239 25.6727C14.2215 27.3593 13.3618 28.9277 12.0543 30.1784C12.0451 30.1877 12.0354 30.1967 12.0257 30.2058C11.9585 30.2757 11.9153 30.3613 11.9011 30.4524C11.8869 30.5435 11.9023 30.6364 11.9456 30.7199C11.9889 30.8035 12.0581 30.8743 12.1452 30.9239C12.2323 30.9735 12.3335 31 12.4369 31C12.4653 31.0001 12.4936 30.9982 12.5216 30.9943C12.5417 30.9915 12.5616 30.9876 12.5812 30.9827C15.4146 30.4309 18.0202 29.1905 20.1082 27.3996L21.9701 27.9757V23.9147L21.382 23.3918L21.3837 23.3893C21.3415 23.3463 21.3141 23.2934 21.3048 23.2369C21.2955 23.1804 21.3047 23.1227 21.3313 23.0708C21.3579 23.0188 21.4007 22.9747 21.4547 22.9439C21.5087 22.913 21.5715 22.8966 21.6357 22.8967H25.6792C25.9058 22.9038 26.1205 22.989 26.2779 23.1341C26.4353 23.2793 26.5233 23.4732 26.5231 23.6749V29.3856L30.9225 30.7465C31.2688 30.8586 31.6404 30.8947 32.0057 30.8519C32.3711 30.8091 32.7195 30.6887 33.0214 30.5007C33.3234 30.3128 33.5699 30.0629 33.7403 29.7722C33.9106 29.4815 33.9997 29.1586 34 28.8308V15.0388C34 14.4982 33.7586 13.9797 33.3289 13.5974C32.8993 13.215 32.3165 13.0002 31.7087 13ZM24.2306 21.934C23.7773 21.934 23.3342 21.8144 22.9573 21.5903C22.5803 21.3663 22.2866 21.0479 22.1131 20.6754C21.9396 20.3028 21.8942 19.8929 21.9827 19.4974C22.0711 19.1019 22.2894 18.7386 22.6099 18.4535C22.9305 18.1683 23.3389 17.9742 23.7835 17.8955C24.2281 17.8168 24.6889 17.8572 25.1078 18.0115C25.5266 18.1658 25.8845 18.4271 26.1364 18.7624C26.3882 19.0977 26.5226 19.4919 26.5226 19.8951C26.5226 20.4359 26.2812 20.9544 25.8513 21.3368C25.4215 21.7191 24.8385 21.934 24.2306 21.934Z" fill="white"/>
<defs>
<linearGradient id="paint0_linear" x1="22" y1="44" x2="22.0001" y2="-1.00659e-06" gradientUnits="userSpaceOnUse">
<stop stop-color="#0EA4C2"/>
<stop offset="1" stop-color="#13CFB9"/>
</linearGradient>
</defs>
</svg>
