<svg width="180" height="108" viewBox="0 0 180 108" fill="none" xmlns="http://www.w3.org/2000/svg">
<path d="M37.2934 24C36.957 23.9996 36.6231 24.0548 36.307 24.163V24.1613L13.4077 31.6506C12.4275 31.9086 11.564 32.461 10.9489 33.2235C10.3338 33.9861 10.0009 34.917 10.0009 35.8741C10.0009 36.8313 10.3338 37.7621 10.9489 38.5247C11.564 39.2873 12.4275 39.8397 13.4077 40.0977L16.3243 41.0515L15.6884 40.8435C15.3082 43.0852 14.2274 45.1698 12.5836 46.8321C12.572 46.8444 12.5598 46.8565 12.5476 46.8685C12.4632 46.9614 12.4088 47.0752 12.3909 47.1963C12.3731 47.3174 12.3925 47.4408 12.4469 47.5519C12.5013 47.6629 12.5884 47.757 12.6978 47.823C12.8073 47.889 12.9346 47.924 13.0646 47.9241C13.1002 47.9242 13.1358 47.9217 13.171 47.9166C13.1963 47.9128 13.2213 47.9076 13.2459 47.9012C16.8081 47.1677 20.084 45.5191 22.709 43.1388L25.0498 43.9045V38.5069L24.3105 37.8119L24.3126 37.8086C24.2595 37.7514 24.2251 37.6811 24.2134 37.606C24.2018 37.5309 24.2133 37.4543 24.2467 37.3852C24.2802 37.3162 24.334 37.2576 24.4019 37.2166C24.4698 37.1755 24.5488 37.1538 24.6295 37.1538H29.713C29.9979 37.1633 30.2678 37.2765 30.4657 37.4695C30.6636 37.6624 30.7741 37.9201 30.774 38.1882V45.7785L36.3049 47.5872C36.7403 47.7361 37.2074 47.7842 37.6668 47.7273C38.1261 47.6704 38.5641 47.5103 38.9437 47.2605C39.3233 47.0107 39.6333 46.6786 39.8475 46.2922C40.0616 45.9058 40.1736 45.4767 40.174 45.041V26.7098C40.174 25.9913 39.8705 25.3021 39.3303 24.794C38.7901 24.2858 38.0574 24.0002 37.2934 24ZM27.8918 35.8743C27.3219 35.8743 26.7648 35.7153 26.2909 35.4176C25.817 35.1198 25.4477 34.6966 25.2296 34.2015C25.0115 33.7063 24.9545 33.1614 25.0656 32.6358C25.1768 32.1101 25.4513 31.6273 25.8543 31.2483C26.2572 30.8693 26.7707 30.6112 27.3297 30.5067C27.8886 30.4021 28.468 30.4558 28.9945 30.6609C29.5211 30.866 29.9711 31.2133 30.2877 31.6589C30.6044 32.1046 30.7734 32.6285 30.7734 33.1644C30.7734 33.8831 30.4698 34.5724 29.9294 35.0806C29.389 35.5888 28.6561 35.8743 27.8918 35.8743Z" fill="white"/>
<path d="M55.018 29.0803C55.0151 28.8674 55.058 28.6562 55.1439 28.4592C55.2299 28.2623 55.3572 28.0837 55.5183 27.9341C55.6756 27.7828 55.8634 27.6624 56.0706 27.5799C56.2778 27.4975 56.5004 27.4545 56.7254 27.4536C56.9505 27.4527 57.1734 27.4939 57.3814 27.5747C57.5894 27.6555 57.7782 27.7743 57.937 27.9243C58.1 28.0747 58.2286 28.255 58.3147 28.4539C58.4008 28.6529 58.4426 28.8664 58.4376 29.0811C58.4399 29.2898 58.3966 29.4967 58.3105 29.689C58.2244 29.8814 58.0973 30.0551 57.937 30.1994C57.6161 30.5007 57.1811 30.67 56.7276 30.67C56.2741 30.67 55.8392 30.5007 55.5183 30.1994C55.358 30.0549 55.2308 29.8811 55.1448 29.6886C55.0587 29.4961 55.0156 29.2891 55.018 29.0803ZM58.1245 41.8844H55.3503V32.2371H58.1234L58.1245 41.8844Z" fill="white"/>
<path d="M63.4415 36.3353V41.8841H60.6672V32.2374H63.3567V33.4334C63.6482 32.9631 64.0845 32.587 64.608 32.3548C65.1399 32.1089 65.7249 31.9814 66.3177 31.9824C67.5266 31.9824 68.4475 32.3386 69.0803 33.0509C69.7375 33.8325 70.0742 34.8102 70.0289 35.8058V41.8841H67.2559V36.257C67.2814 35.7551 67.115 35.2612 66.7868 34.8647C66.4063 34.5186 65.8954 34.3283 65.3661 34.3356C64.8367 34.343 64.3321 34.5473 63.9626 34.9039C63.6071 35.3042 63.4215 35.814 63.4415 36.3353Z" fill="white"/>
<path d="M77.1814 29.8454C76.8179 29.8378 76.4621 29.9448 76.1707 30.1493C76.0177 30.2767 75.8991 30.4364 75.8247 30.6154C75.7504 30.7944 75.7225 30.9875 75.7432 31.1787V32.2374H78.0575V34.4739H75.7426V41.8843H72.9481V34.4728H71.2388V32.2362H72.9484V31.1384C72.9242 30.6624 73.0011 30.1866 73.1746 29.7388C73.3481 29.291 73.6149 28.8803 73.9592 28.5306C74.3156 28.1986 74.7415 27.94 75.2099 27.7712C75.6783 27.6024 76.1789 27.5272 76.6799 27.5502C77.1479 27.5277 77.616 27.5942 78.056 27.7459V29.9419C77.7707 29.8714 77.4763 29.8389 77.1814 29.8454Z" fill="white"/>
<path d="M79.965 33.3942C81.0009 32.463 82.3787 31.9434 83.8118 31.9434C85.2448 31.9434 86.6227 32.463 87.6586 33.3942C88.6436 34.3905 89.1911 35.7005 89.1911 37.0609C89.1911 38.4213 88.6436 39.7312 87.6586 40.7275C86.6227 41.6587 85.2448 42.1784 83.8118 42.1784C82.3787 42.1784 81.0009 41.6587 79.965 40.7275C78.9799 39.7312 78.4324 38.4213 78.4324 37.0609C78.4324 35.7005 78.9799 34.3905 79.965 33.3942ZM81.9665 39.0803C82.2077 39.3101 82.495 39.4926 82.8118 39.6171C83.1286 39.7416 83.4685 39.8058 83.8118 39.8058C84.1551 39.8058 84.495 39.7416 84.8118 39.6171C85.1285 39.4926 85.4158 39.3101 85.657 39.0803C86.1494 38.5091 86.418 37.7961 86.418 37.0607C86.418 36.3254 86.1494 35.6124 85.657 35.0412C85.4158 34.8114 85.1285 34.6289 84.8118 34.5044C84.495 34.3798 84.1551 34.3157 83.8118 34.3157C83.4685 34.3157 83.1286 34.3798 82.8118 34.5044C82.495 34.6289 82.2077 34.8114 81.9665 35.0412C81.4742 35.6124 81.2056 36.3254 81.2056 37.0607C81.2056 37.7961 81.4742 38.5091 81.9665 39.0803Z" fill="white"/>
<path d="M97.2182 32.198V34.8259C96.9436 34.7741 96.6642 34.7478 96.3841 34.7474C95.6809 34.7173 94.9929 34.9459 94.466 35.3848C93.9792 35.8097 93.736 36.5058 93.7362 37.4729V41.8847H90.9631V32.2375H93.6526V33.6688C94.1531 32.6624 95.1261 32.1592 96.5716 32.1592C96.7246 32.159 96.9402 32.1719 97.2182 32.198Z" fill="white"/>
<path d="M101.534 41.8842H98.7609V32.2373H101.409V33.4137C101.699 32.947 102.136 32.5768 102.66 32.3547C103.204 32.0994 103.803 31.9654 104.411 31.9633C105.897 31.9633 106.912 32.4992 107.455 33.5711C107.796 33.0549 108.277 32.6338 108.849 32.3511C109.42 32.0685 110.062 31.9346 110.707 31.9633C111.68 31.9391 112.625 32.2697 113.345 32.8858C114.061 33.5009 114.419 34.4159 114.419 35.6309V41.8856H111.729V36.1601C111.754 35.6826 111.595 35.2126 111.281 34.8366C111.108 34.6621 110.895 34.5265 110.658 34.44C110.422 34.3534 110.168 34.3182 109.915 34.3368C109.657 34.3274 109.399 34.3718 109.161 34.4667C108.924 34.5616 108.711 34.7047 108.538 34.8859C108.188 35.2582 108.002 35.7419 108.017 36.2387V41.8859H105.265V36.1604C105.29 35.6813 105.127 35.2104 104.807 34.8369C104.634 34.6641 104.423 34.5296 104.189 34.4431C103.955 34.3567 103.703 34.3204 103.451 34.3371C103.191 34.3261 102.931 34.3687 102.69 34.4618C102.448 34.5549 102.231 34.6964 102.054 34.8764C101.701 35.2507 101.514 35.7387 101.533 36.239L101.534 41.8842Z" fill="white"/>
<path d="M123.697 38.4727L126.012 39.1199C125.739 40.0018 125.163 40.774 124.375 41.3159C123.494 41.911 122.427 42.2144 121.343 42.1786C120.649 42.1921 119.96 42.075 119.316 41.8343C118.671 41.5935 118.084 41.2339 117.59 40.7766C116.561 39.8423 116.047 38.5907 116.047 37.0218C116.02 36.3484 116.14 35.6769 116.398 35.0482C116.656 34.4195 117.047 33.8468 117.548 33.3648C118.003 32.9119 118.553 32.5519 119.163 32.3074C119.773 32.0629 120.43 31.939 121.092 31.9435C122.678 31.9435 123.919 32.3879 124.814 33.2767C125.71 34.1656 126.158 35.3877 126.159 36.9432C126.159 37.048 126.156 37.1657 126.149 37.2963C126.141 37.4272 126.138 37.5317 126.138 37.61L126.117 37.7473H118.778C118.786 38.0463 118.861 38.3404 118.997 38.6106C119.134 38.8808 119.329 39.1211 119.57 39.3159C120.062 39.7312 120.703 39.9554 121.363 39.9432C122.544 39.9432 123.322 39.4531 123.697 38.4727ZM118.839 35.9631H123.426C123.411 35.455 123.191 34.9714 122.811 34.61C122.585 34.4162 122.32 34.2676 122.032 34.1733C121.743 34.079 121.437 34.0408 121.133 34.0612C120.833 34.0498 120.535 34.0959 120.255 34.1969C119.975 34.2978 119.72 34.4514 119.506 34.6483C119.114 34.9908 118.875 35.461 118.839 35.9631Z" fill="white"/>
<path d="M130.703 41.8842H127.93V32.2373H130.577V33.4137C130.867 32.947 131.305 32.5768 131.828 32.3547C132.373 32.0993 132.972 31.9654 133.58 31.9633C135.066 31.9633 136.081 32.4992 136.624 33.5711C136.965 33.0549 137.446 32.6338 138.018 32.3511C138.589 32.0685 139.231 31.9346 139.876 31.9633C140.849 31.9391 141.794 32.2697 142.514 32.8858C143.23 33.5009 143.588 34.4159 143.588 35.6309V41.8856H140.898V36.1601C140.923 35.6826 140.764 35.2126 140.45 34.8366C140.277 34.6621 140.064 34.5265 139.827 34.44C139.591 34.3534 139.337 34.3182 139.084 34.3368C138.826 34.3275 138.568 34.3719 138.331 34.4668C138.093 34.5617 137.88 34.7048 137.708 34.8859C137.358 35.2582 137.171 35.7419 137.187 36.2387V41.8859H134.434V36.1604C134.459 35.6813 134.296 35.2103 133.976 34.8369C133.804 34.664 133.593 34.5295 133.358 34.443C133.124 34.3565 132.872 34.3203 132.62 34.3371C132.36 34.3261 132.1 34.3687 131.859 34.4618C131.617 34.555 131.4 34.6964 131.223 34.8764C130.87 35.2507 130.683 35.7387 130.702 36.239L130.703 41.8842Z" fill="white"/>
<path d="M149.842 39.198L152.221 38.7079C152.23 38.9073 152.282 39.1028 152.374 39.283C152.465 39.4632 152.594 39.6244 152.752 39.7571C153.127 40.0542 153.608 40.2051 154.097 40.1787C154.455 40.1999 154.809 40.1028 155.098 39.9042C155.21 39.8234 155.3 39.7194 155.361 39.6003C155.423 39.4812 155.454 39.3502 155.452 39.2178C155.452 38.7344 155.084 38.4206 154.347 38.2765L152.992 37.9824C152.171 37.8559 151.414 37.4848 150.834 36.9237C150.358 36.4231 150.101 35.7716 150.115 35.1001C150.111 34.6745 150.207 34.2534 150.396 33.8668C150.586 33.4802 150.863 33.1377 151.209 32.8636C151.965 32.2396 152.946 31.9097 153.951 31.941C154.576 31.93 155.198 32.0262 155.786 32.225C156.249 32.3762 156.67 32.6248 157.016 32.9519C157.285 33.2156 157.51 33.5165 157.683 33.844C157.829 34.1221 157.927 34.4198 157.975 34.7263L155.661 35.2164C155.604 34.8743 155.432 34.5583 155.171 34.3145C155.01 34.1759 154.82 34.0697 154.614 34.0024C154.408 33.9351 154.19 33.9081 153.972 33.9231C153.639 33.9147 153.312 34.0113 153.044 34.1976C152.925 34.2737 152.828 34.376 152.76 34.4957C152.693 34.6153 152.658 34.7486 152.658 34.884C152.658 35.3546 152.97 35.6422 153.596 35.7467L155.056 36.0408C155.91 36.1722 156.7 36.5488 157.318 37.1191C157.832 37.6252 158.113 38.3016 158.1 39.0014C158.103 39.4222 158.011 39.8387 157.832 40.2241C157.652 40.6094 157.388 40.9549 157.057 41.238C156.362 41.8653 155.382 42.179 154.117 42.179C153.457 42.1889 152.8 42.0859 152.178 41.8751C151.678 41.7145 151.224 41.4458 150.854 41.0906C150.567 40.8061 150.328 40.4821 150.145 40.1298C149.993 39.8358 149.891 39.5215 149.842 39.198Z" fill="white"/>
<path d="M166.752 38.4727L169.066 39.1199C168.793 40.0018 168.218 40.774 167.429 41.3159C166.548 41.911 165.481 42.2144 164.397 42.1786C163.704 42.1922 163.014 42.0751 162.37 41.8343C161.725 41.5935 161.138 41.2339 160.644 40.7766C159.615 39.8423 159.101 38.5907 159.101 37.0218C159.074 36.3484 159.194 35.6769 159.452 35.0482C159.71 34.4195 160.101 33.8468 160.602 33.3648C161.058 32.9119 161.607 32.552 162.217 32.3075C162.827 32.0629 163.484 31.939 164.146 31.9435C165.732 31.9435 166.973 32.3879 167.868 33.2767C168.764 34.1656 169.213 35.3877 169.213 36.9432C169.213 37.048 169.21 37.1657 169.203 37.2963C169.196 37.4271 169.193 37.5317 169.193 37.61L169.172 37.7473H161.832C161.84 38.0463 161.915 38.3404 162.052 38.6106C162.188 38.8808 162.383 39.1211 162.625 39.3159C163.116 39.7312 163.757 39.9554 164.418 39.9432C165.598 39.9432 166.376 39.4531 166.752 38.4727ZM161.894 35.9631H166.481C166.465 35.455 166.246 34.9714 165.866 34.61C165.64 34.4162 165.375 34.2676 165.086 34.1733C164.798 34.079 164.492 34.0408 164.187 34.0612C163.888 34.0498 163.589 34.0959 163.31 34.1969C163.03 34.2978 162.775 34.4514 162.561 34.6483C162.169 34.9908 161.93 35.461 161.894 35.9631Z" fill="white"/>
<path d="M146.715 38.6029C147.701 38.6029 148.501 37.8509 148.501 36.9233C148.501 35.9956 147.701 35.2437 146.715 35.2437C145.729 35.2437 144.929 35.9956 144.929 36.9233C144.929 37.8509 145.729 38.6029 146.715 38.6029Z" fill="white"/>
</svg>
