<svg width="20" height="13" viewBox="0 0 20 13" fill="none" xmlns="http://www.w3.org/2000/svg">
<path d="M6.87512 9.42529C9.11878 9.42529 10.9376 7.60645 10.9376 5.36279C10.9376 3.11914 9.11878 1.30029 6.87512 1.30029C4.63146 1.30029 2.81262 3.11914 2.81262 5.36279C2.81262 7.60645 4.63146 9.42529 6.87512 9.42529Z" stroke="white" stroke-miterlimit="10"/>
<path d="M12.1417 1.45157C12.7005 1.29414 13.2865 1.25828 13.8603 1.3464C14.4341 1.43452 14.9823 1.64457 15.4681 1.96242C15.9539 2.28027 16.3659 2.69852 16.6764 3.18901C16.987 3.6795 17.1888 4.23084 17.2683 4.80589C17.3478 5.38094 17.3031 5.96636 17.1373 6.52269C16.9715 7.07903 16.6884 7.59338 16.3071 8.0311C15.9257 8.46882 15.4551 8.81974 14.9267 9.06023C14.3983 9.30071 13.8246 9.42518 13.244 9.42525" stroke="white" stroke-linecap="round" stroke-linejoin="round"/>
<path d="M1.24976 12.3469C1.88424 11.4444 2.72655 10.7078 3.70558 10.1993C4.68461 9.69081 5.77161 9.42534 6.87482 9.42529C7.97803 9.42525 9.06506 9.69065 10.0441 10.1991C11.0232 10.7075 11.8656 11.444 12.5001 12.3465" stroke="white" stroke-linecap="round" stroke-linejoin="round"/>
<path d="M13.244 9.42529C14.3473 9.4245 15.4346 9.68956 16.4137 10.1981C17.3929 10.7065 18.2351 11.4435 18.869 12.3465" stroke="white" stroke-linecap="round" stroke-linejoin="round"/>
</svg>
