<svg width="16" height="16" viewBox="0 0 16 16" fill="none" xmlns="http://www.w3.org/2000/svg">
<path d="M9.87454 14.1749V10.4248C9.87454 10.2591 9.80869 10.1001 9.69148 9.98289C9.57427 9.86568 9.4153 9.79983 9.24954 9.79983H6.74954C6.58378 9.79983 6.42481 9.86568 6.3076 9.98289C6.19039 10.1001 6.12454 10.2591 6.12454 10.4248V14.1749C6.12454 14.3407 6.0587 14.4996 5.94151 14.6168C5.82432 14.734 5.66537 14.7999 5.49962 14.7999L1.75008 14.8004C1.668 14.8004 1.58671 14.7843 1.51088 14.7529C1.43504 14.7214 1.36613 14.6754 1.30809 14.6174C1.25004 14.5593 1.204 14.4904 1.17258 14.4146C1.14117 14.3388 1.125 14.2575 1.125 14.1754V6.95194C1.125 6.86486 1.14319 6.77875 1.17842 6.69911C1.21364 6.61948 1.26511 6.54809 1.32954 6.48951L7.57911 0.807105C7.69415 0.702501 7.84406 0.644536 7.99955 0.644531C8.15504 0.644526 8.30495 0.702481 8.42 0.807077L14.6704 6.48951C14.7349 6.54809 14.7863 6.61948 14.8216 6.69912C14.8568 6.77876 14.875 6.86488 14.875 6.95196V14.1754C14.875 14.2575 14.8588 14.3388 14.8274 14.4146C14.796 14.4904 14.75 14.5593 14.6919 14.6174C14.6339 14.6754 14.565 14.7215 14.4891 14.7529C14.4133 14.7843 14.332 14.8004 14.2499 14.8004L10.4995 14.7999C10.3337 14.7999 10.1748 14.734 10.0576 14.6168C9.94038 14.4996 9.87454 14.3407 9.87454 14.1749V14.1749Z" stroke="white" stroke-linecap="round" stroke-linejoin="round"/>
</svg>
