<svg width="21" height="20" viewBox="0 0 21 20" fill="none" xmlns="http://www.w3.org/2000/svg">
<path d="M7.37513 12.5474C9.61872 12.5474 11.4375 10.7286 11.4375 8.48499C11.4375 6.2414 9.61872 4.42261 7.37513 4.42261C5.13153 4.42261 3.31274 6.2414 3.31274 8.48499C3.31274 10.7286 5.13153 12.5474 7.37513 12.5474Z" stroke="#B3B9C9" stroke-width="1.5" stroke-miterlimit="10"/>
<path d="M12.6416 4.57388C13.2004 4.41646 13.7863 4.38059 14.3601 4.46871C14.9339 4.55683 15.4821 4.76688 15.9679 5.08471C16.4537 5.40255 16.8657 5.82079 17.1762 6.31127C17.4867 6.80175 17.6885 7.35307 17.768 7.92811C17.8475 8.50314 17.8028 9.08853 17.637 9.64486C17.4712 10.2012 17.1881 10.7155 16.8068 11.1532C16.4255 11.5909 15.9548 11.9418 15.4265 12.1823C14.8981 12.4228 14.3244 12.5473 13.7439 12.5473" stroke="#B3B9C9" stroke-width="1.5" stroke-linecap="round" stroke-linejoin="round"/>
<path d="M1.75 15.4689C2.38446 14.5664 3.22675 13.8298 4.20575 13.3214C5.18475 12.8129 6.27172 12.5474 7.3749 12.5474C8.47808 12.5473 9.56507 12.8127 10.5441 13.3211C11.5232 13.8295 12.3655 14.566 13 15.4685" stroke="#B3B9C9" stroke-width="1.5" stroke-linecap="round" stroke-linejoin="round"/>
<path d="M13.7439 12.5474C14.8472 12.5466 15.9344 12.8116 16.9135 13.3201C17.8926 13.8286 18.7348 14.5655 19.3688 15.4685" stroke="#B3B9C9" stroke-width="1.5" stroke-linecap="round" stroke-linejoin="round"/>
</svg>
